<svg xmlns="http://www.w3.org/2000/svg" viewBox="0 0 30.11 43.75"><defs><style>.cls-1{fill:#6e6e6e;stroke-width:1.5px;}.cls-1,.cls-2{stroke:#6e6e6e;stroke-miterlimit:10;}.cls-2{fill:none;stroke-width:3.7px;}</style></defs><g id="Layer_2" data-name="Layer 2"><g id="Layer_1-2" data-name="Layer 1"><path class="cls-1" d="M27.89,7.89A5.8,5.8,0,0,0,24,6.16H19.15l-8.27.1h-5A5.14,5.14,0,0,0,2.14,8,5.22,5.22,0,0,0,.76,11.45v24A4.51,4.51,0,0,0,2.14,39,5.85,5.85,0,0,0,6,40.69h.92v1.15A1.15,1.15,0,0,0,8,43a1.09,1.09,0,0,0,1.1-1.16V40.69H21.08v1.15a1.11,1.11,0,1,0,2.21,0V40.69h.92a5.3,5.3,0,0,0,5.15-5.2v-24A5.38,5.38,0,0,0,27.89,7.89ZM17,6.26H13.08m14,29.14a2.71,2.71,0,0,1-.73,1.83,3.19,3.19,0,0,1-2.21,1H6a3.19,3.19,0,0,1-2.21-1,2.71,2.71,0,0,1-.73-1.83V18.76h24Zm0-18.85H3v-5.2A2.67,2.67,0,0,1,3.7,9.53a3.13,3.13,0,0,1,2.21-1H24a3.12,3.12,0,0,1,2.2,1A2.68,2.68,0,0,1,27,11.35Z"/><line class="cls-2" x1="3.01" y1="27.96" x2="27.02" y2="27.96"/><path class="cls-2" d="M20.57,7.81V4.64a2.79,2.79,0,0,0-2.79-2.79H12.25A2.79,2.79,0,0,0,9.46,4.64V7.81"/></g></g></svg>