<svg xmlns="http://www.w3.org/2000/svg" viewBox="0 0 141.36 140.89"><defs><style>.cls-1{fill:none;stroke:#6e6e6e;stroke-linecap:round;stroke-linejoin:round;stroke-width:15px;}</style></defs><g id="Layer_2" data-name="Layer 2"><g id="Layer_1-2" data-name="Layer 1"><path class="cls-1" d="M21.54,63.45a14,14,0,0,1,14,14v14h70.2v-14a14,14,0,0,1,28.08,0v28a14,14,0,0,1-14,14H21.54a14,14,0,0,1-14-14v-28a14,14,0,0,1,14-14Z"/><path class="cls-1" d="M21.54,63.45v-35A21,21,0,0,1,42.6,7.5H98.76a21,21,0,0,1,21.06,21v35"/><path class="cls-1" d="M28.56,119.4v14"/><path class="cls-1" d="M112.8,119.4v14"/></g></g></svg>