<svg xmlns="http://www.w3.org/2000/svg" viewBox="0 0 979.28 979.28"><defs><style>.cls-1{fill:#fabf4c;}.cls-2,.cls-4{fill:none;stroke:#343331;stroke-miterlimit:10;}.cls-2{stroke-width:38px;}.cls-3{fill:#343331;isolation:isolate;}.cls-4{stroke-width:45px;}</style></defs><g id="Layer_2" data-name="Layer 2"><g id="Layer_1-2" data-name="Layer 1"><circle class="cls-1" cx="489.64" cy="489.64" r="489.64"/><line class="cls-2" x1="394.74" y1="593.42" x2="593.78" y2="398.06"/><circle class="cls-3" cx="427.74" cy="433.9" r="39.87"/><circle class="cls-3" cx="553.9" cy="559.1" r="39.87"/><path class="cls-4" d="M652.14,365.17l32.33,19.51A30.58,30.58,0,0,1,699,412.82l-3,50.76A31.48,31.48,0,0,0,697.11,474l15.46,54.76a32.39,32.39,0,0,1-7.79,31l-30.08,31.7a32.81,32.81,0,0,0-6.6,10.26l-17.59,43.52a32.39,32.39,0,0,1-21.84,19.27l-64.42,16.54a31.86,31.86,0,0,0-9.1,4l-40.3,25.59a30.59,30.59,0,0,1-32.26.63L449.15,691a29.9,29.9,0,0,0-13.66-4.24l-43-2.6a29.81,29.81,0,0,1-23.12-13.31l-26.26-39.6a30,30,0,0,0-8.7-8.6l-31.81-20.53A30.66,30.66,0,0,1,289,573.24l4.5-45.69a31.69,31.69,0,0,0-.76-10.68l-17.1-69.58a32.44,32.44,0,0,1,9.72-31.55l27.16-24.81a32.75,32.75,0,0,0,9-13.94l12.28-37.33a32.44,32.44,0,0,1,22.57-21.3l53.8-13.85a31.87,31.87,0,0,0,7.68-3.1l55.41-31.34a30.51,30.51,0,0,1,30.86.21l30.52,18.42a29.82,29.82,0,0,0,13.8,4.24l44.73,2.5a29.8,29.8,0,0,1,24.54,15.45L641.4,354A29.92,29.92,0,0,0,652.14,365.17Z"/></g></g></svg>