<svg xmlns="http://www.w3.org/2000/svg" xmlns:xlink="http://www.w3.org/1999/xlink" viewBox="0 0 397.09 396.8"><defs><style>.cls-1{fill:none;}.cls-2{clip-path:url(#clip-path);}</style><clipPath id="clip-path" transform="translate(0 -0.14)"><rect class="cls-1" width="397.09" height="397.09"/></clipPath></defs><g id="Layer_2" data-name="Layer 2"><g id="Layer_1-2" data-name="Layer 1"><g class="cls-2"><path d="M385.93,263.92a196.21,196.21,0,0,0,0-130.46c-.28-.57-.28-1.15-.58-1.72C357.89,55.07,284.37.14,198.54.14S39.19,55.07,11.73,131.46a4,4,0,0,0-.57,1.71A199.47,199.47,0,0,0,0,198.69a196.54,196.54,0,0,0,11.16,65.23c.28.56.28,1.14.57,1.71A198.54,198.54,0,0,0,198.54,396.94c85.83,0,159.35-54.92,186.81-131.31C385.65,265.06,385.65,264.48,385.93,263.92ZM198.54,368.62c-7.44,0-19.74-13.73-30-44.34a321.75,321.75,0,0,1-11.73-50.07H240a315.16,315.16,0,0,1-11.73,50.07C218.28,354.89,206,368.62,198.54,368.62Zm-45.2-122.73c-1.43-15.16-2-30.9-2-47.2s.86-32,2-47.21h90.12c1.43,15.17,2,30.9,2,47.21s-.86,32-2,47.2Zm-125-47.2a171.14,171.14,0,0,1,6.58-47.21h89.83c-1.43,15.45-2,31.47-2,47.21s.57,31.75,2,47.2H35.19A172.8,172.8,0,0,1,28.32,198.69ZM198.54,28.46c7.44,0,19.74,13.74,30,44.35a322.62,322.62,0,0,1,11.73,50.07H156.78a306.74,306.74,0,0,1,11.73-50.07C178.8,42.2,190.82,28.46,198.54,28.46Zm73.53,123H361.9a172.87,172.87,0,0,1,0,94.41H272.07c1.42-15.45,2-31.47,2-47.2C274.07,182.67,273.49,166.93,272.07,151.48Zm78.67-28.6H268.92c-5.15-34.91-13.73-66.09-26-88.41A171.3,171.3,0,0,1,350.74,122.88ZM153.91,34.47c-12.3,22.32-20.88,53.5-26,88.41H46.34A170.81,170.81,0,0,1,153.91,34.47ZM46.34,274.21h81.83c5.14,34.9,13.73,66.09,26,88.4A168.87,168.87,0,0,1,46.34,274.21ZM242.89,362.9c12.3-22.32,20.88-53.5,26-88.4h81.82A171.28,171.28,0,0,1,242.89,362.9Z" transform="translate(0 -0.14)"/></g></g></g></svg>