<svg xmlns="http://www.w3.org/2000/svg" viewBox="0 0 284.59 341"><defs><style>.cls-1{fill:#6e6e6e;stroke:#6e6e6e;stroke-miterlimit:10;stroke-width:16px;}</style></defs><g id="Layer_2" data-name="Layer 2"><g id="Layer_1-2" data-name="Layer 1"><path class="cls-1" d="M142.71,333a37,37,0,0,1-25.49-10.14C44.85,254.5,8.11,194.62,8,144.93c0-.51,0-1,0-1.58s0-1.12,0-1.83C8.05,67.89,68.27,8,142.3,8S276.56,67.89,276.56,141.52c0,.71,0,1.31,0,1.84s0,1.12,0,1.65c-.21,49.64-36.63,109.45-108.27,177.74A37,37,0,0,1,142.71,333ZM142.3,23.06C76.62,23.06,23.19,76.2,23.19,141.52c0,.83,0,1.51,0,2.14,0,.43,0,.83,0,1.24,0,18.48,6.09,39.15,18,61.43,17.06,31.95,46.17,67.48,86.52,105.6a21.93,21.93,0,0,0,30.19-.07c39.95-38.09,68.8-73.59,85.7-105.51,11.8-22.27,17.82-42.92,17.9-61.4,0-.43,0-.85,0-1.31,0-.62,0-1.3,0-2.12C261.4,76.2,208,23.06,142.3,23.06Z"/><path class="cls-1" d="M142.3,92.77a49.48,49.48,0,1,1-49.75,49.47A49.66,49.66,0,0,1,142.3,92.77m0-14a63.47,63.47,0,1,0,63.81,63.46A63.63,63.63,0,0,0,142.3,78.78Z"/></g></g></svg>