<svg xmlns="http://www.w3.org/2000/svg" viewBox="0 0 401.19 440"><defs><style>.cls-1{fill:#6e6e6e;stroke:#6e6e6e;stroke-miterlimit:10;stroke-width:5px;}</style></defs><g id="Layer_2" data-name="Layer 2"><g id="Layer_1-2" data-name="Layer 1"><path class="cls-1" d="M344.66,398H56.53a17.22,17.22,0,0,1-12.74-5.79,20.82,20.82,0,0,1-5.27-14V318.86H193.21L188,324.62a20.35,20.35,0,0,0-6.26,14.21A20.84,20.84,0,0,0,187,353.58a16.92,16.92,0,0,0,26.41-1.12l36-39.5a21.18,21.18,0,0,0,0-28.12l-36-39.55a16.78,16.78,0,0,0-16.81-3.94,19,19,0,0,0-12.17,13.37A21.39,21.39,0,0,0,188,273.18l5.24,5.75H38.52v-78.7H362.67v178a20.82,20.82,0,0,1-5.27,14A17.22,17.22,0,0,1,344.66,398ZM56.53,81.59h18v19.77a20.16,20.16,0,0,0,9,17.11,16.52,16.52,0,0,0,18,0,20.19,20.19,0,0,0,9-17.11V81.59H290.64v19.77a20.16,20.16,0,0,0,9,17.11,16.52,16.52,0,0,0,18,0,20.17,20.17,0,0,0,9-17.11V81.59h18a17.26,17.26,0,0,1,12.74,5.79,20.82,20.82,0,0,1,5.27,14v59.32H38.52V101.36a20.82,20.82,0,0,1,5.27-14A17.26,17.26,0,0,1,56.53,81.59ZM344.66,42.05h-18V22.27a20.17,20.17,0,0,0-9-17.1,16.52,16.52,0,0,0-18,0,20.16,20.16,0,0,0-9,17.1V42.05H110.55V22.27a20.18,20.18,0,0,0-9-17.1,16.52,16.52,0,0,0-18,0,20.16,20.16,0,0,0-9,17.1V42.05h-18c-14.32,0-28.07,6.25-38.2,17.38A62.33,62.33,0,0,0,2.5,101.36V378.18a62.34,62.34,0,0,0,15.83,41.94c10.13,11.12,23.88,17.38,38.2,17.38H344.66c14.35,0,28.07-6.26,38.2-17.38a62.34,62.34,0,0,0,15.83-41.94V101.36a62.33,62.33,0,0,0-15.83-41.93C372.73,48.3,359,42.05,344.66,42.05"/></g></g></svg>