<svg xmlns="http://www.w3.org/2000/svg" viewBox="0 0 269.12 257.19"><defs><style>.cls-1{fill:none;stroke:#6e6e6e;stroke-miterlimit:10;stroke-width:24px;}</style></defs><g id="Layer_2" data-name="Layer 2"><g id="Layer_1-2" data-name="Layer 1"><path class="cls-1" d="M134.74,12.61,172.3,88.72a.21.21,0,0,0,.15.11l84,12.21a.2.2,0,0,1,.12.34l-60.78,59.24a.2.2,0,0,0-.06.18l14.35,83.65a.2.2,0,0,1-.29.21l-75.13-39.49a.21.21,0,0,0-.19,0L59.34,244.66a.2.2,0,0,1-.29-.21L73.4,160.8a.2.2,0,0,0-.06-.18L12.56,101.38a.2.2,0,0,1,.11-.34l84-12.21a.21.21,0,0,0,.15-.11l37.56-76.11A.2.2,0,0,1,134.74,12.61Z"/></g></g></svg>