<svg id="Layer_1" data-name="Layer 1" xmlns="http://www.w3.org/2000/svg" viewBox="0 0 397.09 396.8"><defs><style>.cls-1{fill:#fff;}</style></defs><path class="cls-1" d="M385.93,263.78a196.21,196.21,0,0,0,0-130.46c-.28-.57-.28-1.15-.58-1.72C357.89,54.93,284.37,0,198.54,0S39.19,54.93,11.73,131.32a4,4,0,0,0-.57,1.71A199.42,199.42,0,0,0,0,198.55a196.65,196.65,0,0,0,11.16,65.23c.28.56.28,1.14.57,1.71A198.54,198.54,0,0,0,198.54,396.8c85.83,0,159.35-54.92,186.81-131.31C385.65,264.92,385.65,264.34,385.93,263.78ZM198.54,368.48c-7.44,0-19.74-13.73-30-44.34a321.85,321.85,0,0,1-11.73-50.07H240a314.91,314.91,0,0,1-11.73,50.07C218.28,354.75,206,368.48,198.54,368.48Zm-45.2-122.73c-1.43-15.16-2-30.9-2-47.2s.86-32,2-47.21h90.12c1.43,15.17,2,30.9,2,47.21s-.86,32-2,47.2Zm-125-47.2a171.28,171.28,0,0,1,6.58-47.21h89.83c-1.43,15.45-2,31.47-2,47.21s.57,31.75,2,47.2H35.19a172.91,172.91,0,0,1-6.87-47.2ZM198.54,28.32c7.44,0,19.74,13.74,30,44.35a321.85,321.85,0,0,1,11.73,50.07H156.78a307,307,0,0,1,11.73-50.07C178.8,42.06,190.82,28.32,198.54,28.32Zm73.53,123H361.9a172.87,172.87,0,0,1,0,94.41H272.07c1.42-15.45,2-31.47,2-47.2,0-16-.58-31.74-2-47.19Zm78.67-28.6H268.92c-5.15-34.91-13.73-66.09-26-88.41a171.3,171.3,0,0,1,107.82,88.43ZM153.91,34.33c-12.3,22.32-20.88,53.5-26,88.41H46.34A170.78,170.78,0,0,1,153.91,34.33ZM46.34,274.07h81.83c5.14,34.9,13.73,66.09,26,88.4A168.87,168.87,0,0,1,46.34,274.07Zm196.55,88.69c12.3-22.32,20.88-53.5,26-88.4h81.82A171.28,171.28,0,0,1,242.89,362.76Z"/></svg>