<svg xmlns="http://www.w3.org/2000/svg" viewBox="0 0 158.73 173.07"><g id="Layer_2" data-name="Layer 2"><g id="Layer_1-2" data-name="Layer 1"><path d="M152.23,61.26c-5.5,3.5-10.6,6.3-14.1,9.5v.1l-.4.4-.6.6a2.18,2.18,0,0,0-.4.5,12.87,12.87,0,0,0-3,5v.1a11.76,11.76,0,0,0-.8,4.3H79.33V66.16s24.5.1,23.8-25.2V8.16S101-2.54,120.83.56s32.7,27.8,32.7,27.8S165.93,52.66,152.23,61.26Z"/><path d="M79.33,66.16v15.4H25.53a16.65,16.65,0,0,0-.8-5l-.1-.2c-2.2-5.9-9.6-9.8-18.2-15.1C-7.17,52.66,5,28.36,5,28.36S17.93,3.56,37.83.56s17.7,7.6,17.7,7.6v32.7C54.93,66.26,79.33,66.16,79.33,66.16Z"/><path d="M79.33,81.56v17.3s-24.5-.2-23.8,28.3v36.7s2.1,12-17.7,8.6S5,141.16,5,141.16s-12.2-27.3,1.4-36.9c8.2-5.8,15.4-10.1,17.9-16.3a10.27,10.27,0,0,0,.7-2.5h0a20.76,20.76,0,0,0,.5-4h53.8Z"/><path d="M153.63,141.16s-12.8,27.8-32.7,31.2-17.7-8.6-17.7-8.6v-36.7c.6-28.5-23.8-28.3-23.8-28.3V81.56H133a14.29,14.29,0,0,0,1,5.5v.1a13.68,13.68,0,0,0,2.6,4.7c3.4,4.3,9.2,8,15.7,12.6C165.93,113.86,153.63,141.16,153.63,141.16Z"/><rect x="26.13" y="70.36" width="106.7" height="22.9"/></g></g></svg>